<svg width="1200" height="800" viewBox="0 0 1200 800" fill="none" xmlns="http://www.w3.org/2000/svg">
  <defs>
    <linearGradient id="sky3" x1="0" y1="0" x2="0" y2="1">
      <stop offset="0%" stop-color="#5F5F63"/>
      <stop offset="100%" stop-color="#2A2A2D"/>
    </linearGradient>
    <linearGradient id="building3" x1="0" y1="0" x2="1" y2="1">
      <stop offset="0%" stop-color="#B4A48E"/>
      <stop offset="100%" stop-color="#7F7362"/>
    </linearGradient>
  </defs>
  <rect width="1200" height="800" fill="url(#sky3)"/>
  <rect y="610" width="1200" height="190" fill="#202124"/>
  <rect x="210" y="170" width="780" height="440" rx="12" fill="url(#building3)"/>
  <rect x="260" y="120" width="680" height="70" rx="8" fill="#C2B299"/>
  <g fill="#EFE4CF">
    <rect x="255" y="240" width="70" height="65" rx="4"/>
    <rect x="355" y="240" width="70" height="65" rx="4"/>
    <rect x="455" y="240" width="70" height="65" rx="4"/>
    <rect x="555" y="240" width="70" height="65" rx="4"/>
    <rect x="655" y="240" width="70" height="65" rx="4"/>
    <rect x="755" y="240" width="70" height="65" rx="4"/>
    <rect x="855" y="240" width="70" height="65" rx="4"/>
    <rect x="255" y="345" width="70" height="65" rx="4"/>
    <rect x="355" y="345" width="70" height="65" rx="4"/>
    <rect x="455" y="345" width="70" height="65" rx="4"/>
    <rect x="555" y="345" width="70" height="65" rx="4"/>
    <rect x="655" y="345" width="70" height="65" rx="4"/>
    <rect x="755" y="345" width="70" height="65" rx="4"/>
    <rect x="855" y="345" width="70" height="65" rx="4"/>
  </g>
  <rect x="540" y="470" width="120" height="140" rx="6" fill="#3D342C"/>
  <text x="58" y="742" fill="#E7D0A4" font-family="Arial" font-size="42">Patriotic</text>
</svg>
